<?xml version="1.0" encoding="UTF-8"?>
<svg id="Layer_2" data-name="Layer 2" xmlns="http://www.w3.org/2000/svg" viewBox="0 0 385.19 385.19">
  <defs>
    <style>
      .cls-1 {
        fill: none;
        stroke: #d1d1d1;
        stroke-miterlimit: 10;
        stroke-width: 1.19px;
      }

      .cls-2 {
        opacity: .2;
      }
    </style>
  </defs>
  <g class="cls-2">
    <rect class="cls-1" x=".59" y=".59" width="384" height="384"/>
    <line class="cls-1" x1="384.59" y1="24.59" x2=".59" y2="24.59"/>
    <line class="cls-1" x1="384.59" y1="48.59" x2=".59" y2="48.59"/>
    <line class="cls-1" x1="384.59" y1="72.59" x2=".59" y2="72.59"/>
    <line class="cls-1" x1="384.59" y1="96.59" x2=".59" y2="96.59"/>
    <line class="cls-1" x1="384.59" y1="120.59" x2=".59" y2="120.59"/>
    <line class="cls-1" x1="384.59" y1="144.59" x2=".59" y2="144.59"/>
    <line class="cls-1" x1="384.59" y1="168.59" x2=".59" y2="168.59"/>
    <line class="cls-1" x1="384.59" y1="192.59" x2=".59" y2="192.59"/>
    <line class="cls-1" x1="384.59" y1="216.59" x2=".59" y2="216.59"/>
    <line class="cls-1" x1="384.59" y1="240.59" x2=".59" y2="240.59"/>
    <line class="cls-1" x1="384.59" y1="264.59" x2=".59" y2="264.59"/>
    <line class="cls-1" x1="384.59" y1="288.59" x2=".59" y2="288.59"/>
    <line class="cls-1" x1="384.59" y1="312.59" x2=".59" y2="312.59"/>
    <line class="cls-1" x1="384.59" y1="336.59" x2=".59" y2="336.59"/>
    <line class="cls-1" x1="384.59" y1="360.59" x2=".59" y2="360.59"/>
    <line class="cls-1" x1="24.59" y1="384.59" x2="24.59" y2=".59"/>
    <line class="cls-1" x1="48.59" y1="384.59" x2="48.59" y2=".59"/>
    <line class="cls-1" x1="72.59" y1="384.59" x2="72.59" y2=".59"/>
    <line class="cls-1" x1="96.59" y1="384.59" x2="96.59" y2=".59"/>
    <line class="cls-1" x1="120.59" y1="384.59" x2="120.59" y2=".59"/>
    <line class="cls-1" x1="144.59" y1="384.59" x2="144.59" y2=".59"/>
    <line class="cls-1" x1="168.59" y1="384.59" x2="168.59" y2=".59"/>
    <line class="cls-1" x1="192.59" y1="384.59" x2="192.59" y2=".59"/>
    <line class="cls-1" x1="216.59" y1="384.59" x2="216.59" y2=".59"/>
    <line class="cls-1" x1="240.59" y1="384.59" x2="240.59" y2=".59"/>
    <line class="cls-1" x1="264.59" y1="384.59" x2="264.59" y2=".59"/>
    <line class="cls-1" x1="288.59" y1="384.59" x2="288.59" y2=".59"/>
    <line class="cls-1" x1="312.59" y1="384.59" x2="312.59" y2=".59"/>
    <line class="cls-1" x1="336.59" y1="384.59" x2="336.59" y2=".59"/>
    <line class="cls-1" x1="360.59" y1="384.59" x2="360.59" y2=".59"/>
  </g>
  <g>
    <path d="m144.72,96.47c105.73,0,191.75,86.02,191.75,191.75h-96c0-52.8-42.95-95.75-95.75-95.75v-96Z"/>
    <path d="m144.72,96.47c105.73,0,191.75,86.02,191.75,191.75h-96c0-52.8-42.95-95.75-95.75-95.75v-96Z"/>
    <path d="m144.72,192.22c-53.02,0-96,42.98-96,96h96v-96Z"/>
  </g>
</svg>