<?xml version="1.0" encoding="UTF-8"?>
<svg id="Layer_2" data-name="Layer 2" xmlns="http://www.w3.org/2000/svg" viewBox="0 0 1537 769">
  <path d="m1228.03,372.15c39.7,0,72,32.3,72,72s-32.3,72-72,72-72-32.3-72-72,32.3-72,72-72m0-60c-72.9,0-132,59.1-132,132s59.1,132,132,132,132-59.1,132-132-59.1-132-132-132h0Z"/>
  <path d="m671.25,444.03c-.06-72.85-59.13-131.89-132-131.89s-132,59.1-132,132,59.1,132,132,132c26.61,0,51.38-7.88,72.11-21.43v21.43h60v-132.11h-.11Zm-132,72.11c-39.7,0-72-32.3-72-72s32.3-72,72-72,72,32.3,72,72-32.3,72-72,72Z"/>
  <rect x="999.42" y="192.37" width="60" height="383.54"/>
  <path d="m963.82,468.37c1.44-7.82,2.2-15.87,2.2-24.1,0-72.9-59.1-132-132-132s-132,59.1-132,132,59.1,132,132,132c55.93,0,103.73-34.78,122.96-83.9h-69.44c-13.19,14.66-32.29,23.9-53.52,23.9-31.29,0-57.96-20.07-67.87-48h135.74s-.02.07-.03.1h61.96Zm-129.8-96.1c31.29,0,57.96,20.07,67.87,48h-135.74c9.91-27.93,36.58-48,67.87-48Z"/>
  <rect x="1393.8" y="312.15" width="60" height="263.77"/>
  <path d="m1453.12,376.5h64.12v-64.13c-35.42,0-64.12,28.71-64.12,64.13Z"/>
  <path d="m330.41,462.57c-3.22,4.06-6.68,7.96-10.4,11.68-25.31,25.31-58.96,39.25-94.75,39.25s-69.44-13.94-94.75-39.25c-25.31-25.31-39.25-58.96-39.25-94.75s13.94-69.44,39.25-94.75c25.31-25.31,58.96-39.25,94.75-39.25s69.44,13.94,94.75,39.25c3.72,3.72,7.18,7.62,10.4,11.67l54.76-43.59c-37.37-47.11-95.11-77.33-159.91-77.33-112.67,0-204,91.33-204,204s91.33,204,204,204c64.99,0,122.88-30.39,160.24-77.74l-55.08-43.19Z"/>
</svg>